<?xml version="1.0" encoding="UTF-8"?>
<svg id="Layer_1" data-name="Layer 1" xmlns="http://www.w3.org/2000/svg" viewBox="0 0 760 480">
  <defs>
    <style>
      .cls-1 {
        fill: #fff;
      }
    </style>
  </defs>
  <g>
    <path class="cls-1" d="M116.53,166.16c19.41,0,33.16-14.67,33.16-34.46s-13.75-34.33-33.16-34.33-33.16,14.67-33.16,34.33,13.75,34.46,33.16,34.46ZM116.53,108.68c10.78,0,20.22,8.08,20.22,23.02s-9.44,23.16-20.22,23.16-20.22-8.08-20.22-23.16,9.44-23.02,20.22-23.02Z"/>
    <path class="cls-1" d="M208.22,146.11c0-9.56-6.2-16.69-17.93-19.25l-10.52-2.29c-4.99-1.08-7.41-3.91-7.41-7.81,0-4.44,4.31-8.62,10.78-8.62,10.24,0,12.94,7.4,13.48,10.77l11.19-4.17c-1.35-5.79-6.88-17.37-24.67-17.37-12.67,0-23.05,9.42-23.05,20.46,0,9.15,6.07,16.02,16.18,18.17l11.05,2.42c5.39,1.21,8.36,4.31,8.36,8.35,0,4.58-3.91,8.62-11.05,8.62-9.17,0-14.29-5.38-15.1-12.12l-11.46,4.04c1.08,7.4,8.63,18.85,26.42,18.85,16.04,0,23.72-10.9,23.72-20.06Z"/>
    <path class="cls-1" d="M286.2,166.16c19.41,0,33.16-14.67,33.16-34.46s-13.75-34.33-33.16-34.33-33.16,14.67-33.16,34.33,13.75,34.46,33.16,34.46ZM286.2,108.68c10.78,0,20.22,8.08,20.22,23.02s-9.44,23.16-20.22,23.16-20.22-8.08-20.22-23.16,9.44-23.02,20.22-23.02Z"/>
    <rect class="cls-1" x="88.76" y="212.11" width="12.54" height="64.75"/>
    <path class="cls-1" d="M175.71,276.87v-41.06c0-14.41-7.68-25.58-23.18-25.58-7.55,0-15.23,3.1-19.95,11.17v-9.29h-12.4v64.75h12.67v-37.43c0-9.83,5.12-17.77,15.1-17.77,11.32,0,15.1,7.27,15.1,16.29v38.91h12.67Z"/>
    <path class="cls-1" d="M205.64,212.11h-12.4v64.75h12.67v-37.43c0-9.83,5.12-17.77,15.1-17.77,11.32,0,15.1,7.27,15.1,16.29v38.91h12.67v-41.06c0-14.41-7.68-25.58-23.19-25.58-7.55,0-15.23,3.1-19.95,11.17v-9.29Z"/>
    <path class="cls-1" d="M294.07,210.09c-19.41,0-33.16,14.68-33.16,34.33s13.75,34.47,33.16,34.47,33.16-14.67,33.16-34.47-13.75-34.33-33.16-34.33ZM294.07,267.58c-10.78,0-20.22-8.08-20.22-23.16s9.44-23.02,20.22-23.02,20.22,8.08,20.22,23.02-9.44,23.16-20.22,23.16Z"/>
    <polygon class="cls-1" points="370.36 276.87 396.24 212.11 382.63 212.11 364.03 262.06 345.56 212.11 331.27 212.11 357.56 276.87 370.36 276.87"/>
    <path class="cls-1" d="M444.23,268.12c0,4.71.41,7.14.68,8.75h12.4c-.27-1.61-.81-4.98-.81-10.63v-32.45c0-12.65-7.55-23.69-26.96-23.69-14.02,0-25.21,8.61-26.56,21l12.13,2.83c.81-7.54,5.8-13.06,14.69-13.06,9.84,0,14.02,5.25,14.02,11.58,0,2.29-1.08,4.31-4.99,4.84l-17.52,2.56c-11.19,1.62-19.68,8.08-19.68,19.66,0,10.23,8.49,19.39,21.7,19.39,11.59,0,18.06-6.19,20.89-10.77ZM425.09,268.25c-6.47,0-10.51-4.58-10.51-9.43,0-5.79,4.04-8.89,9.44-9.69l19.81-2.96v2.96c0,14.13-8.36,19.12-18.74,19.12Z"/>
    <path class="cls-1" d="M495.86,277.54c4.32,0,7.55-.81,8.63-1.21v-10.77c-1.08.27-3.37.54-4.99.54-6.6,0-9.03-2.96-9.03-8.88v-33.66h14.02v-11.44h-14.02v-20.46h-11.59v10.5c0,5.66-2.97,9.96-9.98,9.96h-3.5v11.44h12.4v35.54c0,11.71,7.01,18.44,18.06,18.44Z"/>
    <rect class="cls-1" x="518.65" y="212.11" width="12.54" height="64.75"/>
    <path class="cls-1" d="M610.98,244.42c0-19.65-13.75-34.33-33.16-34.33s-33.16,14.68-33.16,34.33,13.75,34.47,33.16,34.47,33.16-14.67,33.16-34.47ZM577.82,267.58c-10.78,0-20.22-8.08-20.22-23.16s9.43-23.02,20.22-23.02,20.22,8.08,20.22,23.02-9.44,23.16-20.22,23.16Z"/>
    <path class="cls-1" d="M656.81,210.23c-7.55,0-15.23,3.1-19.95,11.17v-9.29h-12.4v64.75h12.67v-37.43c0-9.83,5.12-17.77,15.1-17.77,11.33,0,15.1,7.27,15.1,16.29v38.91h12.67v-41.06c0-14.41-7.68-25.58-23.19-25.58Z"/>
    <polygon class="cls-1" points="155.22 373.26 138.37 324.53 125.29 324.53 108.44 373.26 93.89 324.53 80 324.53 101.3 389.28 114.64 389.28 131.49 340.01 148.75 389.28 161.82 389.28 182.85 324.53 169.51 324.53 155.22 373.26"/>
    <path class="cls-1" d="M220.05,322.51c-16.31,0-31,13.87-31,34.19,0,21.95,15.23,34.6,32.62,34.6,15.1,0,25.48-9.02,29.12-20.47l-10.92-3.77c-2.43,7.27-7.68,13.06-18.2,13.06s-19.28-8.08-19.55-19.66h48.8c.14-.81.27-2.42.27-4.04,0-20.2-11.19-33.93-31.14-33.93ZM202.53,350.24c.54-8.35,7.01-16.56,17.66-16.56,11.46,0,17.52,7.27,17.79,16.56h-35.45Z"/>
    <path class="cls-1" d="M294.28,322.51c-16.31,0-31,13.87-31,34.19,0,21.95,15.23,34.6,32.62,34.6,15.1,0,25.48-9.02,29.12-20.47l-10.92-3.77c-2.43,7.27-7.68,13.06-18.2,13.06s-19.28-8.08-19.55-19.66h48.8c.13-.81.27-2.42.27-4.04,0-20.2-11.19-33.93-31.14-33.93ZM276.75,350.24c.54-8.35,7.01-16.56,17.66-16.56,11.46,0,17.52,7.27,17.79,16.56h-35.45Z"/>
    <polygon class="cls-1" points="397 324.53 379.47 324.53 351.43 353.21 351.43 291.81 338.9 291.81 338.9 389.28 351.43 389.28 351.43 369.76 360.47 360.75 381.63 389.28 397.54 389.28 369.36 351.86 397 324.53"/>
    <rect class="cls-1" x="223.77" y="68.69" width="12.24" height="69.95"/>
    <path class="cls-1" d="M104.05,194.91c0-5-3.95-8.94-8.95-8.94s-8.99,4.12-8.82,9.27c.15,4.51,3.97,8.32,8.47,8.48,5.16.18,9.29-3.83,9.29-8.8Z"/>
    <path class="cls-1" d="M524.59,203.72c5.16.18,9.28-3.83,9.28-8.8s-3.95-8.94-8.95-8.94-8.99,4.12-8.81,9.27c.16,4.51,3.98,8.31,8.48,8.47Z"/>
    <path class="cls-1" d="M229.95,164.82c4.87,0,8.82-3.94,8.82-8.94s-3.95-8.81-8.82-8.81-8.95,3.94-8.95,8.81,3.95,8.94,8.95,8.94Z"/>
  </g>
  <g>
    <path class="cls-1" d="M438.56,332.44c-.04-.4-.04-.8-.04-1.16,0-4.94,3.65-9.35,9.97-9.35s9.75,4.05,9.75,8.86c0,3.78-2.14,6.81-5.43,8.9l-5.7,3.65c-1.65,1.07-3.12,2.27-3.52,4.05h14.82v4.05h-20.21c.09-4.72,1.96-8.32,6.86-11.48l4.81-3.12c2.72-1.74,3.96-3.78,3.96-6.01,0-2.63-1.78-5.08-5.43-5.08s-5.56,2.63-5.56,5.92c0,.4.04.85.09,1.29l-4.36-.53Z"/>
    <path class="cls-1" d="M465,326.56c1.87-2.8,4.76-4.63,8.86-4.63s6.99,1.82,8.86,4.63c1.91,2.85,2.58,6.5,2.58,10.46s-.67,7.61-2.58,10.46c-1.87,2.8-4.76,4.63-8.86,4.63s-6.99-1.82-8.86-4.63c-1.91-2.85-2.58-6.5-2.58-10.46s.67-7.61,2.58-10.46ZM469.28,346.37c1.11,1.16,2.54,1.87,4.58,1.87s3.47-.71,4.58-1.87c1.74-1.82,2.54-4.94,2.54-9.35s-.8-7.52-2.54-9.35c-1.11-1.16-2.54-1.87-4.58-1.87s-3.47.71-4.58,1.87c-1.74,1.82-2.54,4.94-2.54,9.35s.8,7.52,2.54,9.35Z"/>
    <path class="cls-1" d="M490.42,340.5v-3.65h22.79v3.65h-22.79Z"/>
    <path class="cls-1" d="M518.02,332.44c-.04-.4-.04-.8-.04-1.16,0-4.94,3.65-9.35,9.97-9.35s9.75,4.05,9.75,8.86c0,3.78-2.14,6.81-5.43,8.9l-5.7,3.65c-1.65,1.07-3.12,2.27-3.52,4.05h14.82v4.05h-20.21c.09-4.72,1.96-8.32,6.86-11.48l4.81-3.12c2.72-1.74,3.96-3.78,3.96-6.01,0-2.63-1.78-5.08-5.43-5.08s-5.56,2.63-5.56,5.92c0,.4.04.85.09,1.29l-4.36-.53Z"/>
    <path class="cls-1" d="M540.55,339.92l12.37-17.31h6.01v18.29h4.94v4.05h-4.94v6.5h-4.23v-6.5h-14.15v-5.03ZM554.7,326.79l-10.15,14.11h10.15v-14.11Z"/>
    <path class="cls-1" d="M593.52,319.22c7.92,0,15.85,5.88,15.85,16.42s-7.92,16.47-15.85,16.47-15.85-5.92-15.85-16.47,7.92-16.42,15.85-16.42ZM593.52,348.11c5.88,0,11.4-4.23,11.4-12.46s-5.52-12.42-11.4-12.42-11.4,4.18-11.4,12.42,5.52,12.46,11.4,12.46Z"/>
    <path class="cls-1" d="M617.42,340.72c0,4.9,3.07,7.52,6.54,7.52,4.01,0,5.48-2.72,5.96-4.41l3.69,1.6c-1.02,3.07-4.09,6.68-9.66,6.68-6.23,0-10.82-4.9-10.82-11.4s4.67-11.35,10.77-11.35c5.7,0,8.64,3.56,9.53,6.81l-3.78,1.6c-.53-2.09-2.09-4.54-5.74-4.54-3.38,0-6.5,2.49-6.5,7.48Z"/>
    <path class="cls-1" d="M644.13,330.04h4.63v3.78h-4.63v11.13c0,1.96.8,2.94,2.98,2.94.53,0,1.29-.09,1.65-.18v3.56c-.36.13-1.42.4-2.85.4-3.65,0-5.96-2.23-5.96-6.1v-11.75h-4.09v-3.78h1.16c2.31,0,3.29-1.42,3.29-3.29v-3.47h3.83v6.77Z"/>
  </g>
  <g>
    <path class="cls-1" d="M438.56,370.44c-.04-.4-.04-.8-.04-1.16,0-4.94,3.65-9.35,9.97-9.35s9.75,4.05,9.75,8.86c0,3.78-2.14,6.81-5.43,8.9l-5.7,3.65c-1.65,1.07-3.12,2.27-3.52,4.05h14.82v4.05h-20.21c.09-4.72,1.96-8.32,6.86-11.48l4.81-3.12c2.72-1.74,3.96-3.78,3.96-6.01,0-2.63-1.78-5.08-5.43-5.08s-5.56,2.63-5.56,5.92c0,.4.04.85.09,1.29l-4.36-.53Z"/>
    <path class="cls-1" d="M465,364.57c1.87-2.8,4.76-4.63,8.86-4.63s6.99,1.82,8.86,4.63c1.91,2.85,2.58,6.5,2.58,10.46s-.67,7.61-2.58,10.46c-1.87,2.8-4.76,4.63-8.86,4.63s-6.99-1.82-8.86-4.63c-1.91-2.85-2.58-6.5-2.58-10.46s.67-7.61,2.58-10.46ZM469.27,384.37c1.11,1.16,2.54,1.87,4.58,1.87s3.47-.71,4.58-1.87c1.74-1.82,2.54-4.94,2.54-9.35s-.8-7.52-2.54-9.35c-1.11-1.16-2.54-1.87-4.58-1.87s-3.47.71-4.58,1.87c-1.74,1.82-2.54,4.94-2.54,9.35s.8,7.52,2.54,9.35Z"/>
    <path class="cls-1" d="M489.44,370.44c-.04-.4-.04-.8-.04-1.16,0-4.94,3.65-9.35,9.97-9.35s9.75,4.05,9.75,8.86c0,3.78-2.14,6.81-5.43,8.9l-5.7,3.65c-1.65,1.07-3.12,2.27-3.52,4.05h14.82v4.05h-20.21c.09-4.72,1.96-8.32,6.86-11.48l4.81-3.12c2.72-1.74,3.96-3.78,3.96-6.01,0-2.63-1.78-5.08-5.43-5.08s-5.56,2.63-5.56,5.92c0,.4.04.85.09,1.29l-4.36-.53Z"/>
    <path class="cls-1" d="M516.82,380.37c.27,3.56,2.89,5.97,6.5,5.97s6.19-2.27,6.19-5.83c0-3.96-2.89-5.96-6.23-5.96-2.05,0-4.01.8-5.25,2.09-1.51-.58-2.8-1.16-4.27-1.69l3.74-14.33h15.22v4.01h-12.33l-2.14,8.28c1.29-1.42,3.61-2.14,5.88-2.14,5.65,0,9.79,3.6,9.79,9.57,0,5.43-4.18,9.84-10.59,9.84s-10.28-4.01-10.68-8.55l4.18-1.25Z"/>
  </g>
</svg>